<svg xmlns="http://www.w3.org/2000/svg" viewBox="0 0 1100 733" role="img" aria-label="吸気系カスタムの空気・熱・センサー・ECUの関係図"><rect width="1100" height="733" rx="44" fill="#F5F1EB"/><text x="96" y="94" font-family="Arial,'Noto Sans JP',sans-serif" font-size="30" font-weight="700" fill="#2D2D2D">INTAKE FLOW / HEAT RISK</text><text x="96" y="136" font-family="Arial,'Noto Sans JP',sans-serif" font-size="18" fill="#8B8278">外気・熱・センサーの読み値がECU制御に影響する</text><g transform="translate(90 185)"><rect width="210" height="230" rx="28" fill="#fff" stroke="#E5E0D8" stroke-width="3"/><path d="M50 125c50-74 105-80 156-24" fill="none" stroke="#A5D8D3" stroke-width="12" stroke-linecap="round"/><circle cx="76" cy="114" r="28" fill="#A5D8D3"/><text x="105" y="178" text-anchor="middle" font-family="Arial" font-size="20" font-weight="700" fill="#2D2D2D">AIR</text></g><g transform="translate(445 185)"><rect width="210" height="230" rx="28" fill="#fff" stroke="#E5E0D8" stroke-width="3"/><path d="M58 150c-20-52 20-84 47-127 27 43 67 75 47 127-12 31-38 47-76 47s-64-16-76-47z" fill="#E97451" opacity=".9"/><text x="105" y="178" text-anchor="middle" font-family="Arial" font-size="20" font-weight="700" fill="#2D2D2D">HEAT</text></g><g transform="translate(800 185)"><rect width="210" height="230" rx="28" fill="#fff" stroke="#E5E0D8" stroke-width="3"/><rect x="55" y="64" width="100" height="72" rx="12" fill="#2D2D2D"/><circle cx="105" cy="100" r="20" fill="#A5D8D3"/><text x="105" y="178" text-anchor="middle" font-family="Arial" font-size="20" font-weight="700" fill="#2D2D2D">MAF / ECU</text></g><path d="M318 300H418" stroke="#A5D8D3" stroke-width="8" stroke-linecap="round"/><path d="M673 300h100" stroke="#A5D8D3" stroke-width="8" stroke-linecap="round"/><g font-family="Arial,'Noto Sans JP',sans-serif" fill="#6B6B6B" font-size="18"><text x="125" y="535">CHECK 01　遮熱板</text><text x="125" y="575">CHECK 02　センサー位置</text><text x="125" y="615">CHECK 03　防水と純正戻し</text></g></svg>